<?xml version="1.0" standalone="no"?><!DOCTYPE svg PUBLIC "-//W3C//DTD SVG 1.1//EN" "http://www.w3.org/Graphics/SVG/1.1/DTD/svg11.dtd"><svg t="1724829163366" class="icon" viewBox="0 0 1024 1024" version="1.1" xmlns="http://www.w3.org/2000/svg" p-id="1514" xmlns:xlink="http://www.w3.org/1999/xlink" width="200" height="200"><path d="M807.36 160H216.64A185.28 185.28 0 0 0 32 344.64v398.72A185.28 185.28 0 0 0 216.64 928h590.72A185.28 185.28 0 0 0 992 743.36V344.64A185.28 185.28 0 0 0 807.36 160zM284.16 732.16L192 825.6A96 96 0 0 1 134.4 768l93.44-93.44a40 40 0 0 1 56.64 56.64zM832 825.6l-93.44-93.44a40 40 0 0 1 56.64-56.64L889.6 768a96 96 0 0 1-57.6 57.6z m64-457.28l-225.92 216.32a236.8 236.8 0 0 1-334.08 0L128 373.12V352a96 96 0 0 1 38.72-76.48l237.76 240.96a140.8 140.8 0 0 0 198.72 0l252.48-242.24A96 96 0 0 1 896 352z" fill="#2c2c2c" p-id="1515"></path></svg>